HIERARCHY
ROOT ZeroOut_JNT
{
  OFFSET 0 0 0
  CHANNELS 6 Xposition Yposition Zposition Zrotation Xrotation Yrotation
  JOINT SpineFinal_1_JNT
  {
    OFFSET 0 59.8141 -42.9993
    CHANNELS 6 Xposition Yposition Zposition Zrotation Xrotation Yrotation
    JOINT l_legIKClavicle_Root_JNT
    {
      OFFSET -0.323145 -1.55994 9.59625
      CHANNELS 6 Xposition Yposition Zposition Zrotation Xrotation Yrotation
      JOINT l_legBlendRoot_JNT
      {
        OFFSET 16.1374 0 0
        CHANNELS 6 Xposition Yposition Zposition Zrotation Xrotation Yrotation
        JOINT l_legBlendMiddle_JNT
        {
          OFFSET 27.0969 0 0
          CHANNELS 6 Xposition Yposition Zposition Zrotation Xrotation Yrotation
          JOINT l_legBlendEnd_JNT
          {
            OFFSET 24.8414 0 0
            CHANNELS 6 Xposition Yposition Zposition Zrotation Xrotation Yrotation
            JOINT l_legBlendTip_JNT
            {
              OFFSET 6.77858 0 0
              CHANNELS 6 Xposition Yposition Zposition Zrotation Xrotation Yrotation
              End Site
              {
                OFFSET 0 0 0
              }
            }
          }
        }
      }
    }
    JOINT SpineFinal_2_JNT
    {
      OFFSET -19.5366 0.0587492 -0.00256357
      CHANNELS 6 Xposition Yposition Zposition Zrotation Xrotation Yrotation
      JOINT SpineFinal_3_JNT
      {
        OFFSET -19.4679 1.47333 -0.00136182
        CHANNELS 6 Xposition Yposition Zposition Zrotation Xrotation Yrotation
        JOINT SpineFinal_4_JNT
        {
          OFFSET -18.2335 5.20609 0
          CHANNELS 6 Xposition Yposition Zposition Zrotation Xrotation Yrotation
          JOINT SpineFinal_5_JNT
          {
            OFFSET -17.3574 8.01768 -1.82773e-005
            CHANNELS 6 Xposition Yposition Zposition Zrotation Xrotation Yrotation
            JOINT SpineFinal_6_JNT
            {
              OFFSET -19.144 8.35871 0
              CHANNELS 6 Xposition Yposition Zposition Zrotation Xrotation Yrotation
              JOINT SpineFinal_7_JNT
              {
                OFFSET -16.3943 7.24542 0
                CHANNELS 6 Xposition Yposition Zposition Zrotation Xrotation Yrotation
                JOINT SpineFinal_8_JNT
                {
                  OFFSET -19.3877 2.40349 0
                  CHANNELS 6 Xposition Yposition Zposition Zrotation Xrotation Yrotation
                  JOINT head_JNT
                  {
                    OFFSET -13.796 -11.6756 0
                    CHANNELS 6 Xposition Yposition Zposition Zrotation Xrotation Yrotation
                    JOINT l_hornRoot_JNT
                    {
                      OFFSET -15.825 14.8229 15.3879
                      CHANNELS 6 Xposition Yposition Zposition Zrotation Xrotation Yrotation
                      JOINT l_hornMid_JNT
                      {
                        OFFSET 6.55118 0 0
                        CHANNELS 6 Xposition Yposition Zposition Zrotation Xrotation Yrotation
                        JOINT l_hornEnd_JNT
                        {
                          OFFSET 6.73503 0 0
                          CHANNELS 6 Xposition Yposition Zposition Zrotation Xrotation Yrotation
                          End Site
                          {
                            OFFSET 0 0 0
                          }
                        }
                      }
                    }
                    JOINT headJend_JNT
                    {
                      OFFSET 1.34858 -27.5886 0
                      CHANNELS 6 Xposition Yposition Zposition Zrotation Xrotation Yrotation
                      End Site
                      {
                        OFFSET 0 0 0
                      }
                    }
                    JOINT r_hornRoot_JNT
                    {
                      OFFSET -15.825 14.8229 -15.3879
                      CHANNELS 6 Xposition Yposition Zposition Zrotation Xrotation Yrotation
                      JOINT r_hornMid_JNT
                      {
                        OFFSET -2.40814 5.46468 -2.69372
                        CHANNELS 6 Xposition Yposition Zposition Zrotation Xrotation Yrotation
                        JOINT r_hornEnd_JNT
                        {
                          OFFSET -2.40922 6.0083 -1.85921
                          CHANNELS 6 Xposition Yposition Zposition Zrotation Xrotation Yrotation
                          End Site
                          {
                            OFFSET 0 0 0
                          }
                        }
                      }
                    }
                    JOINT m_upLip_JNT
                    {
                      OFFSET 4.72477 -9.87974 0
                      CHANNELS 6 Xposition Yposition Zposition Zrotation Xrotation Yrotation
                      JOINT l_lipUpRoot_JNT
                      {
                        OFFSET 2.68891 -0.690234 4.02874
                        CHANNELS 6 Xposition Yposition Zposition Zrotation Xrotation Yrotation
                        JOINT l_lipUpEnd_JNT
                        {
                          OFFSET 0 0 -14.9226
                          CHANNELS 6 Xposition Yposition Zposition Zrotation Xrotation Yrotation
                          End Site
                          {
                            OFFSET 0 0 0
                          }
                        }
                      }
                      JOINT m_upLipRoot_JNT
                      {
                        OFFSET 0 0 3.94939
                        CHANNELS 6 Xposition Yposition Zposition Zrotation Xrotation Yrotation
                        JOINT m_upLipEnd_JNT
                        {
                          OFFSET 0 0 15.0019
                          CHANNELS 6 Xposition Yposition Zposition Zrotation Xrotation Yrotation
                          End Site
                          {
                            OFFSET 0 0 0
                          }
                        }
                      }
                      JOINT r_lipUpRoot_JNT
                      {
                        OFFSET -2.689 -0.690236 4.02875
                        CHANNELS 6 Xposition Yposition Zposition Zrotation Xrotation Yrotation
                        JOINT r_lipUpEnd_JNT
                        {
                          OFFSET 9.35075e-005 -0.000392738 14.9226
                          CHANNELS 6 Xposition Yposition Zposition Zrotation Xrotation Yrotation
                          End Site
                          {
                            OFFSET 0 0 0
                          }
                        }
                      }
                    }
                    JOINT m_DnLip_JNT
                    {
                      OFFSET 6.0207 -9.81639 0
                      CHANNELS 6 Xposition Yposition Zposition Zrotation Xrotation Yrotation
                      JOINT l_lipDn_JNT
                      {
                        OFFSET 2.71301 -0.162748 3.99146
                        CHANNELS 6 Xposition Yposition Zposition Zrotation Xrotation Yrotation
                        JOINT l_lipEnd_JNT
                        {
                          OFFSET 0 0 -14.9599
                          CHANNELS 6 Xposition Yposition Zposition Zrotation Xrotation Yrotation
                          End Site
                          {
                            OFFSET 0 0 0
                          }
                        }
                      }
                      JOINT m_dnLip_JNT
                      {
                        OFFSET 0 -0.0431035 3.99141
                        CHANNELS 6 Xposition Yposition Zposition Zrotation Xrotation Yrotation
                        JOINT m_dnLipEnd_JNT
                        {
                          OFFSET 0 0 14.9599
                          CHANNELS 6 Xposition Yposition Zposition Zrotation Xrotation Yrotation
                          End Site
                          {
                            OFFSET 0 0 0
                          }
                        }
                      }
                      JOINT r_lipDn_JNT
                      {
                        OFFSET -2.71301 -0.162761 3.99141
                        CHANNELS 6 Xposition Yposition Zposition Zrotation Xrotation Yrotation
                        JOINT r_lipDnEnd_JNT
                        {
                          OFFSET 0 0 14.9599
                          CHANNELS 6 Xposition Yposition Zposition Zrotation Xrotation Yrotation
                          End Site
                          {
                            OFFSET 0 0 0
                          }
                        }
                      }
                    }
                    JOINT l_lid_JNT
                    {
                      OFFSET -7.85698 -6.72885 9.63956
                      CHANNELS 6 Xposition Yposition Zposition Zrotation Xrotation Yrotation
                      End Site
                      {
                        OFFSET 0 0 0
                      }
                    }
                    JOINT r_lid_JNT
                    {
                      OFFSET -7.85684 -6.72882 -9.63956
                      CHANNELS 6 Xposition Yposition Zposition Zrotation Xrotation Yrotation
                      End Site
                      {
                        OFFSET 0 0 0
                      }
                    }
                  }
                }
              }
            }
            JOINT l_FwClavicleRoot_JNT
            {
              OFFSET -0.15532 -4.55898 6.72563
              CHANNELS 6 Xposition Yposition Zposition Zrotation Xrotation Yrotation
              JOINT l_FwLegBlendRoot_JNT
              {
                OFFSET 21.051 0 0
                CHANNELS 6 Xposition Yposition Zposition Zrotation Xrotation Yrotation
                JOINT l_FwLegBlendMiddle_JNT
                {
                  OFFSET 33.1145 0 0
                  CHANNELS 6 Xposition Yposition Zposition Zrotation Xrotation Yrotation
                  JOINT l_FwLegBlendTip_JNT
                  {
                    OFFSET 29.9221 0 0
                    CHANNELS 6 Xposition Yposition Zposition Zrotation Xrotation Yrotation
                    JOINT l_FwLegBlendEnd_JNT
                    {
                      OFFSET 9.62649 0 0
                      CHANNELS 6 Xposition Yposition Zposition Zrotation Xrotation Yrotation
                      End Site
                      {
                        OFFSET 0 0 0
                      }
                    }
                  }
                }
              }
            }
            JOINT r_FwClavicleRoot_JNT
            {
              OFFSET -0.15532 -4.55898 -6.72563
              CHANNELS 6 Xposition Yposition Zposition Zrotation Xrotation Yrotation
              JOINT r_FwLegBlendRoot_JNT
              {
                OFFSET 1.1653 -12.7157 -16.7361
                CHANNELS 6 Xposition Yposition Zposition Zrotation Xrotation Yrotation
                JOINT r_FwLegBlendMiddle_JNT
                {
                  OFFSET 16.2308 -5.97551 28.2387
                  CHANNELS 6 Xposition Yposition Zposition Zrotation Xrotation Yrotation
                  JOINT r_FwLegBlendTip_JNT
                  {
                    OFFSET 26.7017 -9.19239 -9.89204
                    CHANNELS 6 Xposition Yposition Zposition Zrotation Xrotation Yrotation
                    JOINT r_FwLegBlendEnd_JNT
                    {
                      OFFSET 4.44874 -7.74942 3.58114
                      CHANNELS 6 Xposition Yposition Zposition Zrotation Xrotation Yrotation
                      End Site
                      {
                        OFFSET 0 0 0
                      }
                    }
                  }
                }
              }
            }
          }
        }
      }
    }
    JOINT r_legIKClavicle_Root_JNT
    {
      OFFSET -0.323145 -1.55994 -9.59625
      CHANNELS 6 Xposition Yposition Zposition Zrotation Xrotation Yrotation
      JOINT r_legBlendRoot_JNT
      {
        OFFSET 13.2848 -5.74129 -7.13912
        CHANNELS 6 Xposition Yposition Zposition Zrotation Xrotation Yrotation
        JOINT r_legBlendMiddle_JNT
        {
          OFFSET 14.815 16.9375 15.0957
          CHANNELS 6 Xposition Yposition Zposition Zrotation Xrotation Yrotation
          JOINT r_legBlendEnd_JNT
          {
            OFFSET 23.6904 -6.58016 -3.54465
            CHANNELS 6 Xposition Yposition Zposition Zrotation Xrotation Yrotation
            JOINT r_legBlendTip_JNT
            {
              OFFSET 1.47758 -6.16068 -2.41079
              CHANNELS 6 Xposition Yposition Zposition Zrotation Xrotation Yrotation
              End Site
              {
                OFFSET 0 0 0
              }
            }
          }
        }
      }
    }
    JOINT tailRoot_JNT
    {
      OFFSET 2.82533 14.5514 0
      CHANNELS 6 Xposition Yposition Zposition Zrotation Xrotation Yrotation
      JOINT tailMid_JNT
      {
        OFFSET 7.87756 0 0
        CHANNELS 6 Xposition Yposition Zposition Zrotation Xrotation Yrotation
        JOINT tailEnd_JNT
        {
          OFFSET 6.52588 0 0
          CHANNELS 6 Xposition Yposition Zposition Zrotation Xrotation Yrotation
          End Site
          {
            OFFSET 0 0 0
          }
        }
      }
    }
    JOINT l_shoulderBkRoot_JNT
    {
      OFFSET -9.30511 7.998 11.2048
      CHANNELS 6 Xposition Yposition Zposition Zrotation Xrotation Yrotation
      JOINT l_shoulderBkMid_JNT
      {
        OFFSET 0 0 0
        CHANNELS 6 Xposition Yposition Zposition Zrotation Xrotation Yrotation
        End Site
        {
          OFFSET 0 0 0
        }
      }
    }
    JOINT r_shoulderBkRoot_JNT
    {
      OFFSET -9.30514 7.99801 -11.2048
      CHANNELS 6 Xposition Yposition Zposition Zrotation Xrotation Yrotation
      JOINT r_shoulderBkMid_JNT
      {
        OFFSET 0 0 0
        CHANNELS 6 Xposition Yposition Zposition Zrotation Xrotation Yrotation
        End Site
        {
          OFFSET 0 0 0
        }
      }
    }
  }
}
MOTION
Frames:	3
Frame Time:	0.0416667
0 0 0 0 0 -0 6.02785e-014 63.8357 -42.9278 3.0095 -1.85836 90.0613 -0.323145 -1.55994 9.59625 -26.4062 61.2999 -67.9538 16.1374 -7.3504e-007 1.72886e-006 -30.9106 9.36879 40.2938 27.0969 1.77636e-014 -4.9738e-014 5.00461e-015 1.93815e-015 -62.9837 24.8414 3.55271e-015 3.55271e-014 0.653157 0.932378 -26.4012 6.77858 -7.10543e-015 -1.42109e-014 -1.89576e-022 -5.68727e-022 -6.36111e-015 -19.2804 -2.83627 -0.136809 11.5505 2.59724 -0.557854 -18.906 -0.218062 -0.00420279 16.4672 0.340333 -0.109529 -17.3447 1.03697 5.75135e-006 -1.09439 0.0013244 -0.000327751 -16.607 8.42958 -0.00013717 7.29448 -0.00158183 0.000565004 -19.144 8.35871 -2.07813e-014 -6.27289 -3.33965e-015 -1.07129e-014 -16.3943 7.24542 2.60762e-014 -8.28666 2.72564e-015 -1.39281e-014 -19.3877 2.40349 -3.46626e-014 10.1085 5.36379e-015 -1.4958e-014 -13.796 -11.6756 2.83199e-014 -28.7699 -1.78653e-022 -1.80689e-022 -15.825 14.8229 15.3879 112.717 -2.35881 -24.301 6.55118 1.13687e-013 1.42109e-014 -7.71366e-009 -7.59931 2.05853 6.73503 2.84217e-014 -5.37348e-014 5.00013e-033 -1.98785e-016 1.44119e-015 1.34858 -27.5886 -1.33918e-014 92.7985 1.31729e-014 -1.65353e-014 -15.825 14.8229 -15.3879 -8.84592e-015 1.59028e-014 1.59028e-014 -2.40814 5.46468 -2.69372 -36.0976 -3.24524 -12.7174 -2.40922 6.0083 -1.85921 -9.54166e-015 1.59028e-015 -7.95139e-016 4.72477 -9.87974 -3.65742e-016 92.7985 3.50417e-015 -90 2.68891 -0.690234 4.02874 180 7.01671e-015 -180 -4.44089e-016 -1.42109e-014 -14.9226 5.92424e-024 0 -4.35062e-023 -3.83282e-020 1.42109e-014 3.94939 -1.18485e-023 -3.97569e-016 -1.48014e-022 0 0 15.0019 -5.92424e-024 0 4.13771e-023 -2.689 -0.690236 4.02875 -1.18485e-023 -3.97569e-016 -1.48014e-022 9.35075e-005 -0.000392738 14.9226 -5.92424e-024 0 4.13771e-023 6.0207 -9.81639 -3.65745e-016 92.7985 3.50417e-015 -90 2.71301 -0.162748 3.99146 180 7.01671e-015 -180 -4.44089e-016 1.42109e-014 -14.9599 5.92424e-024 0 -4.35062e-023 -9.6098e-018 -0.0431035 3.99141 -1.18485e-023 -3.97569e-016 -1.48014e-022 2.11758e-022 0 14.9599 -5.92424e-024 0 4.13771e-023 -2.71301 -0.162761 3.99141 -1.18485e-023 -3.97569e-016 -1.48014e-022 4.44089e-016 0 14.9599 -5.92424e-024 0 4.13771e-023 -7.85698 -6.72885 9.63956 34.106 19.9417 85.9622 -7.85684 -6.72882 -9.63956 -145.894 19.9417 85.9622 2.50717 -6.37354 6.72563 11.8066 26.2605 -112.654 21.051 1.66437e-007 1.87785e-007 163.915 -62.1742 -137.731 33.1145 8.3753e-007 -2.8019e-007 72.8649 7.01671e-015 180 29.9221 -8.88178e-015 2.13163e-014 -32.8497 -3.41645e-015 3.47177e-015 9.62649 1.77636e-014 7.10543e-015 29.859 -1.7467e-015 90 0.258878 -5.46276 -6.72563 -73.6749 9.37258 -17.9831 1.1653 -12.7157 -16.7361 61.232 -67.2601 146.879 16.2308 -5.97551 28.2387 154.512 18.2753 106.41 26.7017 -9.19239 -9.89204 10.277 55.197 55.6791 4.44874 -7.74942 3.58114 29.859 -1.7467e-015 90 -0.323145 -1.55994 -9.59625 -62.7106 -9.24999 4.74057 13.2848 -5.74129 -7.13912 -15.8648 10.3442 47.5659 14.815 16.9375 15.0957 -3.99204 4.05761 -53.906 23.6904 -6.58016 -3.54465 3.45297 0.943106 -51.0317 1.47758 -6.16068 -2.41079 3.97569e-016 -1.59028e-015 -3.27995e-015 2.82533 14.5514 -1.24345e-014 32.4888 -2.8948e-015 -4.44781e-015 7.87756 -4.26326e-014 -6.21725e-015 36.9832 -1.73937e-015 1.97853e-015 6.52588 3.19744e-014 -2.66454e-015 3.04313 -1.86361e-016 4.16205e-016 -9.30511 7.998 11.2048 -6.8505 -4.18474e-016 -90 0 0 0 -1.61513e-016 0 -0 -9.30514 7.99801 -11.2048 173.149 4.18474e-016 -90 0 0 0 -7.15935e-016 -1.59028e-015 -1.61513e-016 
0 0 0 0 0 -0 5.5946e-014 63.3935 -42.9495 3.0095 -1.85836 90.0613 -0.323145 -1.55994 9.59625 -26.4062 61.2999 -67.9538 16.1374 -7.23994e-007 1.7267e-006 -30.9106 9.36879 40.2938 27.0969 2.13163e-014 -5.68434e-014 5.00461e-015 1.93815e-015 -62.9837 24.8414 7.10543e-015 1.42109e-014 0.653157 0.932378 -26.4012 6.77858 -7.10543e-015 -1.06581e-014 -1.89576e-022 -5.68727e-022 -6.36111e-015 -19.3219 -2.74746 -0.122615 10.9907 2.42018 -0.491137 -18.8994 0.183995 -0.00155321 16.4672 0.340333 -0.109529 -16.8953 1.54623 2.33599e-006 -1.09439 0.0013244 -0.000327751 -16.7365 8.07252 -0.000109306 7.29448 -0.00158183 0.000565004 -19.144 8.35871 -2.08167e-014 -6.27289 -3.31955e-015 -1.07018e-014 -16.3943 7.24542 2.60902e-014 -8.28666 2.75697e-015 -1.39382e-014 -19.3877 2.40349 -3.4639e-014 10.1085 5.35243e-015 -1.49741e-014 -13.796 -11.6756 2.83107e-014 -13.157 2.52363e-017 -2.17421e-017 -15.825 14.8229 15.3879 112.717 -2.35881 -24.301 6.55118 1.42109e-013 3.55271e-014 -7.71367e-009 -7.59931 2.05853 6.73503 4.26326e-014 -5.15143e-014 -3.18055e-015 7.95139e-016 -3.57812e-015 1.34858 -27.5886 -1.34337e-014 92.7985 1.31493e-014 -1.6465e-014 -15.825 14.8229 -15.3879 2.38542e-014 6.33781e-015 6.36732e-015 -2.40814 5.46468 -2.69372 -36.0976 -3.24524 -12.7174 -2.40922 6.0083 -1.85921 -3.18055e-015 7.95139e-016 -0 4.72477 -9.87974 -3.88578e-016 92.7985 3.50417e-015 -90 2.68891 -0.690234 4.02874 180 7.01671e-015 -180 0 1.42109e-014 -14.9226 4.65902e-018 0 1.32005e-017 0 -1.42109e-014 3.94939 -6.21202e-018 -3.18055e-015 -1.32005e-017 0 0 15.0019 -9.31803e-018 -3.18055e-015 -4.07664e-017 -2.689 -0.690236 4.02875 -6.21202e-018 -3.18055e-015 -1.32005e-017 9.35075e-005 -0.000392738 14.9226 -9.31803e-018 -3.18055e-015 -4.07664e-017 6.0207 -9.81639 -3.88578e-016 92.7985 3.50417e-015 -90 2.71301 -0.162748 3.99146 180 7.01671e-015 -180 4.44089e-016 0 -14.9599 4.65902e-018 0 1.32005e-017 -2.77556e-017 -0.0431035 3.99141 -6.21202e-018 -3.18055e-015 -1.32005e-017 0 0 14.9599 -9.31803e-018 -3.18055e-015 -4.07664e-017 -2.71301 -0.162761 3.99141 -6.21202e-018 -3.18055e-015 -1.32005e-017 0 -1.42109e-014 14.9599 -9.31803e-018 -3.18055e-015 -4.07664e-017 -7.85698 -6.72885 9.63956 34.106 19.9417 85.9622 -7.85684 -6.72882 -9.63956 -145.894 19.9417 85.9622 2.1248 -5.95507 6.72563 11.8066 26.2605 -112.654 21.051 7.87584e-008 1.03169e-007 163.915 -62.1742 -137.731 33.1145 8.3753e-007 -2.8019e-007 72.8649 -7.01671e-015 180 29.9221 -1.02141e-014 -3.55271e-015 -32.8497 -3.39021e-015 3.45854e-015 9.62649 2.13163e-014 7.10543e-015 29.859 -1.7467e-015 90 0.100712 -5.1804 -6.72563 -73.6749 9.37258 -17.9831 1.1653 -12.7157 -16.7361 61.232 -67.2601 146.879 16.2308 -5.97551 28.2387 154.512 18.2753 106.41 26.7017 -9.19239 -9.89204 10.277 55.197 55.6791 4.44874 -7.74942 3.58114 29.859 -8.08068e-015 90 -0.323145 -1.55994 -9.59625 -62.7106 -9.24999 4.74057 13.2848 -5.74129 -7.13912 -15.8648 10.3442 47.5659 14.815 16.9375 15.0957 -3.99204 4.05761 -53.906 23.6904 -6.58016 -3.54465 3.45297 0.943106 -51.0317 1.47758 -6.16068 -2.41079 3.97569e-016 -1.59028e-015 -3.27995e-015 2.82533 14.5514 2.38476e-013 32.4888 -2.8948e-015 -4.44781e-015 7.87756 0 5.90639e-014 36.9832 -1.73937e-015 1.97853e-015 6.52588 2.84217e-014 9.68114e-014 2.71814 4.09993e-016 5.684e-016 -9.30511 7.998 11.2048 -6.8505 -4.18474e-016 -90 0 0 0 -1.61513e-016 0 -0 -9.30514 7.99801 -11.2048 173.149 4.18474e-016 -90 0 0 0 -7.15935e-016 -1.59028e-015 -1.61513e-016 
0 0 0 0 0 -0 5.09975e-014 63.0561 -42.969 2.79244 -1.05006 90.0175 -0.323145 -1.55994 9.59625 -26.4062 61.2999 -67.9538 16.1374 -7.12085e-007 1.72384e-006 -30.522 9.4262 51.475 27.0969 2.13163e-014 -4.26326e-014 4.74454e-015 2.03754e-015 -58.4583 24.8414 1.06581e-014 0 0.716772 0.67285 -42.9821 6.77858 -7.10543e-015 -1.42109e-014 3.79152e-022 -2.46449e-021 -0 -19.3698 -2.52765 -0.101974 10.0156 2.21669 -0.405179 -18.9027 0.497878 0.000214986 12.9411 0.317273 -0.0809721 -16.624 2.06612 -3.01624e-007 -3.22356 0.00114198 -0.000293923 -16.8887 7.75071 -8.50056e-005 8.52797 -0.00135995 0.000519027 -19.144 8.35871 -2.07612e-014 -5.46086 -3.4038e-015 -1.06909e-014 -16.3943 7.24542 2.60902e-014 -8.44524 2.789e-015 -1.39126e-014 -19.3877 2.40349 -3.46667e-014 11.1379 5.12841e-015 -1.50478e-014 -13.796 -11.6756 2.83107e-014 -4.75006 -3.49426e-018 1.86361e-017 -15.825 14.8229 15.3879 112.717 -2.35881 -24.301 6.55118 1.42109e-013 2.13163e-014 -7.71366e-009 -7.59931 2.05853 6.73503 4.26326e-014 -4.9738e-014 9.54166e-015 -5.56597e-015 -8.74653e-015 1.34858 -27.5886 -1.33504e-014 92.7985 1.31602e-014 -1.65263e-014 -15.825 14.8229 -15.3879 1.90833e-014 4.19311e-017 9.53933e-015 -2.40814 5.46468 -2.69372 -36.0976 -3.24524 -12.7174 -2.40922 6.0083 -1.85921 0 0 -0 4.72477 -9.87974 -3.05311e-016 92.7985 3.50417e-015 -90 2.68891 -0.690234 4.02874 180 7.01671e-015 -180 4.44089e-016 0 -14.9226 -1.55301e-018 -3.18055e-015 7.105e-017 -2.77556e-017 0 3.94939 -2.40716e-017 -3.18055e-015 -9.20156e-017 2.77556e-017 1.42109e-014 15.0019 -2.09656e-017 0 -5.04727e-017 -2.689 -0.690236 4.02875 -2.40716e-017 -3.18055e-015 -9.20156e-017 9.35075e-005 -0.000392738 14.9226 -2.09656e-017 0 -5.04727e-017 6.0207 -9.81639 -3.05311e-016 92.7985 3.50417e-015 -90 2.71301 -0.162748 3.99146 180 7.01671e-015 -180 -4.44089e-016 1.42109e-014 -14.9599 -1.55301e-018 -3.18055e-015 7.105e-017 2.77556e-017 -0.0431035 3.99141 -2.40716e-017 -3.18055e-015 -9.20156e-017 -2.77556e-017 0 14.9599 -2.09656e-017 0 -5.04727e-017 -2.71301 -0.162761 3.99141 -2.40716e-017 -3.18055e-015 -9.20156e-017 -4.44089e-016 0 14.9599 -2.09656e-017 0 -5.04727e-017 -7.85698 -6.72885 9.63956 34.106 19.9417 85.9622 -7.85684 -6.72882 -9.63956 -145.894 19.9417 85.9622 1.79935 -5.54596 6.72563 12.3786 26.2605 -112.654 21.051 1.61414e-008 2.45057e-008 151.92 -66.1124 -148.539 33.1145 8.3753e-007 -2.8019e-007 75.4806 7.01671e-015 180 29.9221 -1.06581e-014 1.42109e-014 -27.3013 -3.07767e-015 3.78778e-015 9.62649 1.77636e-014 7.10543e-015 29.859 -1.7467e-015 90 -0.00609697 -4.92707 -6.72563 -72.0271 9.37258 -17.9831 1.1653 -12.7157 -16.7361 65.0596 -65.0521 143.054 16.2308 -5.97551 28.2387 153.715 18.0336 108.969 26.7017 -9.19239 -9.89204 18.8597 50.9078 44.9586 4.44874 -7.74942 3.58114 29.859 -1.7467e-015 90 -0.323145 -1.55994 -9.59625 -62.7106 -9.24999 4.74057 13.2848 -5.74129 -7.13912 -15.8704 10.3441 47.2929 14.815 16.9375 15.0957 -5.41931 5.49686 -53.7872 23.6904 -6.58016 -3.54465 4.6609 1.09626 -50.9791 1.47758 -6.16068 -2.41079 -1.19271e-015 -1.59028e-015 -2.28602e-015 2.82533 14.5514 4.78728e-013 29.5522 -2.26428e-015 -4.50061e-015 7.87756 0 1.14131e-013 35.0757 -1.10885e-015 9.51992e-016 6.52588 1.42109e-014 1.87406e-013 2.39314 4.34841e-017 -7.42336e-016 -9.30511 7.998 11.2048 -6.8505 -4.18474e-016 -90 0 0 0 5.6607e-016 3.18055e-015 -1.55301e-017 -9.30514 7.99801 -11.2048 173.149 4.18474e-016 -90 0 0 0 -7.29136e-016 0 -7.14382e-017 
